# This file uses centimeters as units for non-parametric coordinates.

mtllib Room_Shell.mtl
g default
v -15.000000 0.000000 10.330145
v 15.000000 0.000000 10.330145
v -15.000000 10.000000 10.330145
v 15.000000 10.000000 10.330145
v -15.000000 10.000000 -10.330145
v 15.000000 10.000000 -10.330145
v -15.000000 0.000000 -10.330145
v 15.000000 0.000000 -10.330145
v -10.000000 10.000000 10.330145
v -10.000000 0.000000 10.330145
v -10.000000 0.000000 -10.330145
v -10.000000 10.000000 -10.330145
v -8.000000 10.000000 10.330145
v -8.000000 0.000000 10.330145
v -8.000000 0.000000 -10.330145
v -8.000000 10.000000 -10.330145
v -1.000000 10.000000 10.330145
v -1.000000 0.000000 10.330145
v -1.000000 0.000000 -10.330145
v -1.000000 10.000000 -10.330145
v 1.000000 10.000000 10.330145
v 1.000000 0.000000 10.330145
v 1.000000 0.000000 -10.330145
v 1.000000 10.000000 -10.330145
v 8.000000 10.000000 10.330145
v 8.000000 0.000000 10.330145
v 8.000000 0.000000 -10.330145
v 8.000000 10.000000 -10.330145
v 10.000000 10.000000 10.330145
v 10.000000 0.000000 10.330145
v 10.000000 0.000000 -10.330145
v 10.000000 10.000000 -10.330145
v 15.000000 10.000000 -6.198087
v 15.000000 0.000000 -6.198087
v 10.000000 0.000000 -6.000000
v 8.000000 0.000000 -6.000000
v 1.000000 0.000000 -6.000000
v -1.000000 0.000000 -6.000000
v -8.000000 0.000000 -6.000000
v -10.000000 0.000000 -6.000000
v -15.000000 0.000000 -6.198087
v -15.000000 10.000000 -6.198087
v -10.000000 10.000000 -6.198087
v -8.000000 10.000000 -6.198087
v -1.000000 10.000000 -6.198087
v 1.000000 10.000000 -6.198087
v 8.000000 10.000000 -6.198087
v 10.000000 10.000000 -6.198087
v 15.000000 10.000000 -9.297130
v 15.000000 0.000000 -9.297130
v 10.000000 0.000000 -9.000000
v 8.000000 0.000000 -9.000000
v 1.000000 0.000000 -9.000000
v -1.000000 0.000000 -9.000000
v -8.000000 0.000000 -9.000000
v -10.000000 0.000000 -9.000000
v -15.000000 0.000000 -9.297130
v -15.000000 10.000000 -9.297130
v -10.000000 10.000000 -9.297130
v -8.000000 10.000000 -9.297130
v -1.000000 10.000000 -9.297130
v 1.000000 10.000000 -9.297130
v 8.000000 10.000000 -9.297130
v 10.000000 10.000000 -9.297130
v 15.000000 3.000000 -10.330145
v 15.000000 3.000000 -9.297130
v 15.000000 3.000000 -6.198087
v 15.000000 3.000000 10.330145
v 10.000000 3.000000 10.330145
v 8.000000 3.000000 10.330145
v 1.000000 3.000000 10.330145
v -1.000000 3.000000 10.330145
v -8.000000 3.000000 10.330145
v -10.000000 3.000000 10.330145
v -15.000000 3.000000 10.330145
v -15.000000 3.000000 -6.198087
v -15.000000 3.000000 -9.297130
v -15.000000 3.000000 -10.330145
v -10.000000 3.000000 -10.330145
v -8.000000 3.000000 -10.330145
v -1.000000 3.000000 -10.330145
v 1.000000 3.000000 -10.330145
v 8.000000 3.000000 -10.330145
v 10.000000 3.000000 -10.330145
v 15.000000 7.000000 -10.330145
v 15.000000 7.000000 -9.297130
v 15.000000 7.000000 -6.198087
v 15.000000 7.000000 10.330145
v 10.000000 7.000000 10.330145
v 8.000000 7.000000 10.330145
v 1.000000 7.000000 10.330145
v -1.000000 7.000000 10.330145
v -8.000000 7.000000 10.330145
v -10.000000 7.000000 10.330145
v -15.000000 7.000000 10.330145
v -15.000000 7.000000 -6.198087
v -15.000000 7.000000 -9.297130
v -15.000000 7.000000 -10.330145
v -10.000000 7.000000 -10.330145
v -8.000000 7.000000 -10.330145
v -1.000000 7.000000 -10.330145
v 1.000000 7.000000 -10.330145
v 8.000000 7.000000 -10.330145
v 10.000000 7.000000 -10.330145
vt 0.051490 0.498119
vt 0.001878 0.498119
vt 0.001878 0.415431
vt 0.051490 0.415431
vt 0.001878 0.382356
vt 0.051490 0.382356
vt 0.117641 0.498119
vt 0.117641 0.415431
vt 0.001878 0.266593
vt 0.051490 0.266593
vt 0.167253 0.498119
vt 0.167253 0.415431
vt 0.001878 0.233518
vt 0.051490 0.233518
vt 0.117641 0.382356
vt 0.117641 0.266593
vt 0.167253 0.382356
vt 0.001878 0.117755
vt 0.051490 0.117755
vt 0.167253 0.266593
vt 0.001878 0.084680
vt 0.051490 0.084680
vt 0.117641 0.233518
vt 0.117641 0.117755
vt 0.167253 0.233518
vt 0.001878 0.001992
vt 0.051490 0.001992
vt 0.167253 0.117755
vt 0.117641 0.084680
vt 0.117641 0.001992
vt 0.167253 0.084680
vt 0.167253 0.001992
vt 0.516421 0.498119
vt 0.243084 0.498119
vt 0.243084 0.415431
vt 0.516421 0.415431
vt 0.191833 0.498119
vt 0.191833 0.415431
vt 0.243084 0.382356
vt 0.516421 0.382356
vt 0.174750 0.498119
vt 0.174750 0.415431
vt 0.191833 0.382356
vt 0.243084 0.266593
vt 0.516421 0.266593
vt 0.174750 0.382356
vt 0.191833 0.266593
vt 0.243084 0.233518
vt 0.516421 0.233518
vt 0.174750 0.266593
vt 0.191833 0.233518
vt 0.243084 0.117755
vt 0.516421 0.117755
vt 0.174750 0.233518
vt 0.191833 0.117755
vt 0.243084 0.084680
vt 0.516421 0.084680
vt 0.174750 0.117755
vt 0.191833 0.084680
vt 0.243084 0.001992
vt 0.516421 0.001992
vt 0.174750 0.084680
vt 0.191833 0.001992
vt 0.174750 0.001992
vt 0.689176 0.498119
vt 0.639564 0.498119
vt 0.639564 0.415431
vt 0.689176 0.415431
vt 0.573413 0.498119
vt 0.573413 0.415431
vt 0.639564 0.382356
vt 0.689176 0.382356
vt 0.523801 0.498119
vt 0.523801 0.415431
vt 0.639564 0.266593
vt 0.689176 0.266593
vt 0.573413 0.382356
vt 0.523801 0.382356
vt 0.573413 0.266593
vt 0.639564 0.233518
vt 0.689176 0.233518
vt 0.523801 0.266593
vt 0.639564 0.117755
vt 0.689176 0.117755
vt 0.573413 0.233518
vt 0.523801 0.233518
vt 0.573413 0.117755
vt 0.639564 0.084680
vt 0.689176 0.084680
vt 0.523801 0.117755
vt 0.639564 0.001992
vt 0.689176 0.001992
vt 0.573413 0.084680
vt 0.523801 0.084680
vt 0.573413 0.001992
vt 0.523801 0.001992
vt 0.872402 0.998008
vt 0.599066 0.998008
vt 0.599066 0.915320
vt 0.869126 0.915320
vt 0.599066 0.882245
vt 0.869126 0.882245
vt 0.923653 0.998008
vt 0.918739 0.915320
vt 0.599066 0.766482
vt 0.869126 0.766482
vt 0.918739 0.882245
vt 0.940737 0.998008
vt 0.940737 0.915320
vt 0.599066 0.733407
vt 0.869126 0.733407
vt 0.918739 0.766482
vt 0.940737 0.882245
vt 0.599066 0.617644
vt 0.869126 0.617644
vt 0.918739 0.733407
vt 0.940737 0.766482
vt 0.599066 0.584569
vt 0.869126 0.584569
vt 0.918739 0.617644
vt 0.940737 0.733407
vt 0.599066 0.501881
vt 0.872402 0.501881
vt 0.918739 0.584569
vt 0.940737 0.617644
vt 0.923653 0.501881
vt 0.940737 0.584569
vt 0.940737 0.501881
vt 0.372511 0.570215
vt 0.422124 0.570215
vt 0.422124 0.843552
vt 0.372511 0.843552
vt 0.372511 0.518965
vt 0.422124 0.518965
vt 0.306361 0.570215
vt 0.306361 0.843552
vt 0.372511 0.501881
vt 0.422124 0.501881
vt 0.306361 0.518965
vt 0.256748 0.570215
vt 0.256748 0.843552
vt 0.306361 0.501881
vt 0.256748 0.518965
vt 0.256748 0.501881
vt 0.543670 0.501881
vt 0.593282 0.501881
vt 0.593282 0.775218
vt 0.543670 0.775218
vt 0.593282 0.826469
vt 0.543670 0.826469
vt 0.477519 0.501881
vt 0.477519 0.775218
vt 0.593282 0.843552
vt 0.543670 0.843552
vt 0.427907 0.501881
vt 0.427907 0.775218
vt 0.477519 0.826469
vt 0.477519 0.843552
vt 0.427907 0.826469
vt 0.427907 0.843552
vn 0.000000 0.000000 -1.000000
vn 0.000000 0.000000 -1.000000
vn 0.000000 0.000000 -1.000000
vn 0.000000 0.000000 -1.000000
vn 0.000000 -1.000000 0.000000
vn 0.000000 -1.000000 0.000000
vn 0.000000 -1.000000 0.000000
vn 0.000000 -1.000000 0.000000
vn 0.000000 0.000000 1.000000
vn 0.000000 0.000000 1.000000
vn 0.000000 0.000000 1.000000
vn 0.000000 0.000000 1.000000
vn 0.000000 1.000000 0.000000
vn 0.000000 1.000000 0.000000
vn 0.000000 1.000000 0.000000
vn 0.000000 1.000000 0.000000
vn 1.000000 0.000000 0.000000
vn 1.000000 0.000000 0.000000
vn 1.000000 0.000000 0.000000
vn 1.000000 0.000000 0.000000
vn 0.000000 0.000000 -1.000000
vn 0.000000 0.000000 -1.000000
vn 0.000000 0.000000 -1.000000
vn 0.000000 0.000000 -1.000000
vn 0.000000 1.000000 0.000000
vn 0.000000 1.000000 0.000000
vn 0.000000 1.000000 0.000000
vn 0.000000 1.000000 0.000000
vn 0.000000 0.000000 1.000000
vn 0.000000 0.000000 1.000000
vn 0.000000 0.000000 1.000000
vn 0.000000 0.000000 1.000000
vn 0.000000 -1.000000 0.000000
vn 0.000000 -1.000000 0.000000
vn 0.000000 -1.000000 0.000000
vn 0.000000 -1.000000 0.000000
vn 0.000000 0.000000 -1.000000
vn 0.000000 0.000000 -1.000000
vn 0.000000 0.000000 -1.000000
vn 0.000000 0.000000 -1.000000
vn 0.000000 1.000000 0.000000
vn 0.000000 1.000000 0.000000
vn 0.000000 1.000000 0.000000
vn 0.000000 1.000000 0.000000
vn 0.000000 0.000000 1.000000
vn 0.000000 0.000000 1.000000
vn 0.000000 0.000000 1.000000
vn 0.000000 0.000000 1.000000
vn 0.000000 -1.000000 0.000000
vn 0.000000 -1.000000 0.000000
vn 0.000000 -1.000000 0.000000
vn 0.000000 -1.000000 0.000000
vn 0.000000 0.000000 -1.000000
vn 0.000000 0.000000 -1.000000
vn 0.000000 0.000000 -1.000000
vn 0.000000 0.000000 -1.000000
vn 0.000000 1.000000 0.000000
vn 0.000000 1.000000 0.000000
vn 0.000000 1.000000 0.000000
vn 0.000000 1.000000 0.000000
vn 0.000000 0.000000 1.000000
vn 0.000000 0.000000 1.000000
vn 0.000000 0.000000 1.000000
vn 0.000000 0.000000 1.000000
vn 0.000000 -1.000000 0.000000
vn 0.000000 -1.000000 0.000000
vn 0.000000 -1.000000 0.000000
vn 0.000000 -1.000000 0.000000
vn 0.000000 0.000000 -1.000000
vn 0.000000 0.000000 -1.000000
vn 0.000000 0.000000 -1.000000
vn 0.000000 0.000000 -1.000000
vn 0.000000 1.000000 0.000000
vn 0.000000 1.000000 0.000000
vn 0.000000 1.000000 0.000000
vn 0.000000 1.000000 0.000000
vn 0.000000 0.000000 1.000000
vn 0.000000 0.000000 1.000000
vn 0.000000 0.000000 1.000000
vn 0.000000 0.000000 1.000000
vn 0.000000 -1.000000 0.000000
vn 0.000000 -1.000000 0.000000
vn 0.000000 -1.000000 0.000000
vn 0.000000 -1.000000 0.000000
vn 0.000000 0.000000 -1.000000
vn 0.000000 0.000000 -1.000000
vn 0.000000 0.000000 -1.000000
vn 0.000000 0.000000 -1.000000
vn 0.000000 1.000000 0.000000
vn 0.000000 1.000000 0.000000
vn 0.000000 1.000000 0.000000
vn 0.000000 1.000000 0.000000
vn 0.000000 0.000000 1.000000
vn 0.000000 0.000000 1.000000
vn 0.000000 0.000000 1.000000
vn 0.000000 0.000000 1.000000
vn 0.000000 -1.000000 0.000000
vn 0.000000 -1.000000 0.000000
vn 0.000000 -1.000000 0.000000
vn 0.000000 -1.000000 0.000000
vn 0.000000 0.000000 -1.000000
vn 0.000000 0.000000 -1.000000
vn 0.000000 0.000000 -1.000000
vn 0.000000 0.000000 -1.000000
vn 0.000000 1.000000 0.000000
vn 0.000000 1.000000 0.000000
vn 0.000000 1.000000 0.000000
vn 0.000000 1.000000 0.000000
vn 0.000000 0.000000 1.000000
vn 0.000000 0.000000 1.000000
vn 0.000000 0.000000 1.000000
vn 0.000000 0.000000 1.000000
vn 0.000000 -1.000000 0.000000
vn 0.000000 -1.000000 0.000000
vn 0.000000 -1.000000 0.000000
vn 0.000000 -1.000000 0.000000
vn -1.000000 0.000000 0.000000
vn -1.000000 0.000000 0.000000
vn -1.000000 0.000000 0.000000
vn -1.000000 0.000000 0.000000
vn -1.000000 0.000000 0.000000
vn -1.000000 0.000000 0.000000
vn -1.000000 0.000000 0.000000
vn -1.000000 0.000000 0.000000
vn 0.000000 1.000000 0.000000
vn 0.000000 1.000000 0.000000
vn 0.000000 1.000000 0.000000
vn 0.000000 1.000000 0.000000
vn 0.000000 1.000000 0.000000
vn 0.000000 1.000000 0.000000
vn 0.000000 1.000000 0.000000
vn 0.000000 1.000000 0.000000
vn 0.000000 1.000000 0.000000
vn 0.000000 1.000000 0.000000
vn 0.000000 1.000000 0.000000
vn 0.000000 1.000000 0.000000
vn 0.000000 1.000000 0.000000
vn 0.000000 1.000000 0.000000
vn 0.000000 1.000000 0.000000
vn 0.000000 1.000000 0.000000
vn 0.000000 1.000000 0.000000
vn 0.000000 1.000000 0.000000
vn 0.000000 1.000000 0.000000
vn 0.000000 1.000000 0.000000
vn 0.000000 1.000000 0.000000
vn 0.000000 1.000000 0.000000
vn 0.000000 1.000000 0.000000
vn 0.000000 1.000000 0.000000
vn 0.000000 1.000000 0.000000
vn 0.000000 1.000000 0.000000
vn 0.000000 1.000000 0.000000
vn 0.000000 1.000000 0.000000
vn 1.000000 0.000000 0.000000
vn 1.000000 0.000000 0.000000
vn 1.000000 0.000000 0.000000
vn 1.000000 0.000000 0.000000
vn 0.000000 -1.000000 0.000000
vn 0.000000 -1.000000 0.000000
vn 0.000000 -1.000000 0.000000
vn 0.000000 -1.000000 0.000000
vn 0.000000 -1.000000 0.000000
vn 0.000000 -1.000000 0.000000
vn 0.000000 -1.000000 0.000000
vn 0.000000 -1.000000 0.000000
vn 0.000000 -1.000000 0.000000
vn 0.000000 -1.000000 0.000000
vn 0.000000 -1.000000 0.000000
vn 0.000000 -1.000000 0.000000
vn 0.000000 -1.000000 0.000000
vn 0.000000 -1.000000 0.000000
vn 0.000000 -1.000000 0.000000
vn 0.000000 -1.000000 0.000000
vn 0.000000 -1.000000 0.000000
vn 0.000000 -1.000000 0.000000
vn 0.000000 -1.000000 0.000000
vn 0.000000 -1.000000 0.000000
vn 0.000000 -1.000000 0.000000
vn 0.000000 -1.000000 0.000000
vn 0.000000 -1.000000 0.000000
vn 0.000000 -1.000000 0.000000
vn 0.000000 -1.000000 0.000000
vn 0.000000 -1.000000 0.000000
vn 0.000000 -1.000000 0.000000
vn 0.000000 -1.000000 0.000000
vn -1.000000 0.000000 0.000000
vn -1.000000 0.000000 0.000000
vn -1.000000 0.000000 0.000000
vn -1.000000 0.000000 0.000000
vn 0.000000 1.000000 0.000000
vn 0.000000 1.000000 0.000000
vn 0.000000 1.000000 0.000000
vn 0.000000 1.000000 0.000000
vn 0.000000 1.000000 0.000000
vn 0.000000 1.000000 0.000000
vn 0.000000 1.000000 0.000000
vn 0.000000 1.000000 0.000000
vn 0.000000 1.000000 0.000000
vn 0.000000 1.000000 0.000000
vn 0.000000 1.000000 0.000000
vn 0.000000 1.000000 0.000000
vn 0.000000 1.000000 0.000000
vn 0.000000 1.000000 0.000000
vn 0.000000 1.000000 0.000000
vn 0.000000 1.000000 0.000000
vn 0.000000 1.000000 0.000000
vn 0.000000 1.000000 0.000000
vn 0.000000 1.000000 0.000000
vn 0.000000 1.000000 0.000000
vn 0.000000 1.000000 0.000000
vn 0.000000 1.000000 0.000000
vn 0.000000 1.000000 0.000000
vn 0.000000 1.000000 0.000000
vn 0.000000 1.000000 0.000000
vn 0.000000 1.000000 0.000000
vn 0.000000 1.000000 0.000000
vn 0.000000 1.000000 0.000000
vn 1.000000 0.000000 0.000000
vn 1.000000 0.000000 0.000000
vn 1.000000 0.000000 0.000000
vn 1.000000 0.000000 0.000000
vn 0.000000 -1.000000 0.000000
vn 0.000000 -1.000000 0.000000
vn 0.000000 -1.000000 0.000000
vn 0.000000 -1.000000 0.000000
vn 0.000000 -1.000000 0.000000
vn 0.000000 -1.000000 0.000000
vn 0.000000 -1.000000 0.000000
vn 0.000000 -1.000000 0.000000
vn 0.000000 -1.000000 0.000000
vn 0.000000 -1.000000 0.000000
vn 0.000000 -1.000000 0.000000
vn 0.000000 -1.000000 0.000000
vn 0.000000 -1.000000 0.000000
vn 0.000000 -1.000000 0.000000
vn 0.000000 -1.000000 0.000000
vn 0.000000 -1.000000 0.000000
vn 0.000000 -1.000000 0.000000
vn 0.000000 -1.000000 0.000000
vn 0.000000 -1.000000 0.000000
vn 0.000000 -1.000000 0.000000
vn 0.000000 -1.000000 0.000000
vn 0.000000 -1.000000 0.000000
vn 0.000000 -1.000000 0.000000
vn 0.000000 -1.000000 0.000000
vn 0.000000 -1.000000 0.000000
vn 0.000000 -1.000000 0.000000
vn 0.000000 -1.000000 0.000000
vn 0.000000 -1.000000 0.000000
vn -1.000000 0.000000 0.000000
vn -1.000000 0.000000 0.000000
vn -1.000000 0.000000 0.000000
vn -1.000000 0.000000 0.000000
vn -1.000000 0.000000 0.000000
vn -1.000000 0.000000 0.000000
vn -1.000000 0.000000 0.000000
vn -1.000000 0.000000 0.000000
vn 0.000000 0.000000 -1.000000
vn 0.000000 0.000000 -1.000000
vn 0.000000 0.000000 -1.000000
vn 0.000000 0.000000 -1.000000
vn 0.000000 0.000000 -1.000000
vn 0.000000 0.000000 -1.000000
vn 0.000000 0.000000 -1.000000
vn 0.000000 0.000000 -1.000000
vn 0.000000 0.000000 -1.000000
vn 0.000000 0.000000 -1.000000
vn 0.000000 0.000000 -1.000000
vn 0.000000 0.000000 -1.000000
vn 0.000000 0.000000 -1.000000
vn 0.000000 0.000000 -1.000000
vn 0.000000 0.000000 -1.000000
vn 0.000000 0.000000 -1.000000
vn 0.000000 0.000000 -1.000000
vn 0.000000 0.000000 -1.000000
vn 0.000000 0.000000 -1.000000
vn 0.000000 0.000000 -1.000000
vn 0.000000 0.000000 -1.000000
vn 0.000000 0.000000 -1.000000
vn 0.000000 0.000000 -1.000000
vn 0.000000 0.000000 -1.000000
vn 0.000000 0.000000 -1.000000
vn 0.000000 0.000000 -1.000000
vn 0.000000 0.000000 -1.000000
vn 0.000000 0.000000 -1.000000
vn 1.000000 0.000000 0.000000
vn 1.000000 0.000000 0.000000
vn 1.000000 0.000000 0.000000
vn 1.000000 0.000000 0.000000
vn 1.000000 0.000000 0.000000
vn 1.000000 0.000000 0.000000
vn 1.000000 0.000000 0.000000
vn 1.000000 0.000000 0.000000
vn 1.000000 0.000000 0.000000
vn 1.000000 0.000000 0.000000
vn 1.000000 0.000000 0.000000
vn 1.000000 0.000000 0.000000
vn 0.000000 0.000000 1.000000
vn 0.000000 0.000000 1.000000
vn 0.000000 0.000000 1.000000
vn 0.000000 0.000000 1.000000
vn 0.000000 0.000000 1.000000
vn 0.000000 0.000000 1.000000
vn 0.000000 0.000000 1.000000
vn 0.000000 0.000000 1.000000
vn 0.000000 0.000000 1.000000
vn 0.000000 0.000000 1.000000
vn 0.000000 0.000000 1.000000
vn 0.000000 0.000000 1.000000
vn 0.000000 0.000000 1.000000
vn 0.000000 0.000000 1.000000
vn 0.000000 0.000000 1.000000
vn 0.000000 0.000000 1.000000
vn 0.000000 0.000000 1.000000
vn 0.000000 0.000000 1.000000
vn 0.000000 0.000000 1.000000
vn 0.000000 0.000000 1.000000
vn 0.000000 0.000000 1.000000
vn 0.000000 0.000000 1.000000
vn 0.000000 0.000000 1.000000
vn 0.000000 0.000000 1.000000
vn 0.000000 0.000000 1.000000
vn 0.000000 0.000000 1.000000
vn 0.000000 0.000000 1.000000
vn 0.000000 0.000000 1.000000
vn -1.000000 0.000000 0.000000
vn -1.000000 0.000000 0.000000
vn -1.000000 0.000000 0.000000
vn -1.000000 0.000000 0.000000
vn -1.000000 0.000000 0.000000
vn -1.000000 0.000000 0.000000
vn -1.000000 0.000000 0.000000
vn -1.000000 0.000000 0.000000
vn 0.000000 0.000000 -1.000000
vn 0.000000 0.000000 -1.000000
vn 0.000000 0.000000 -1.000000
vn 0.000000 0.000000 -1.000000
vn 0.000000 0.000000 -1.000000
vn 0.000000 0.000000 -1.000000
vn 0.000000 0.000000 -1.000000
vn 0.000000 0.000000 -1.000000
vn 0.000000 0.000000 -1.000000
vn 0.000000 0.000000 -1.000000
vn 0.000000 0.000000 -1.000000
vn 0.000000 0.000000 -1.000000
vn 0.000000 0.000000 -1.000000
vn 0.000000 0.000000 -1.000000
vn 0.000000 0.000000 -1.000000
vn 0.000000 0.000000 -1.000000
vn 1.000000 0.000000 0.000000
vn 1.000000 0.000000 0.000000
vn 1.000000 0.000000 0.000000
vn 1.000000 0.000000 0.000000
vn 1.000000 0.000000 0.000000
vn 1.000000 0.000000 0.000000
vn 1.000000 0.000000 0.000000
vn 1.000000 0.000000 0.000000
vn 1.000000 0.000000 0.000000
vn 1.000000 0.000000 0.000000
vn 1.000000 0.000000 0.000000
vn 1.000000 0.000000 0.000000
vn 0.000000 0.000000 1.000000
vn 0.000000 0.000000 1.000000
vn 0.000000 0.000000 1.000000
vn 0.000000 0.000000 1.000000
vn 0.000000 0.000000 1.000000
vn 0.000000 0.000000 1.000000
vn 0.000000 0.000000 1.000000
vn 0.000000 0.000000 1.000000
vn 0.000000 0.000000 1.000000
vn 0.000000 0.000000 1.000000
vn 0.000000 0.000000 1.000000
vn 0.000000 0.000000 1.000000
vn 0.000000 0.000000 1.000000
vn 0.000000 0.000000 1.000000
vn 0.000000 0.000000 1.000000
vn 0.000000 0.000000 1.000000
s off
g Room_Shell_Mesh
usemtl initialShadingGroup
f 95/1/1 3/2/2 9/3/3 94/4/4
f 3/33/5 42/34/6 43/35/7 9/36/8
f 5/65/9 98/66/10 99/67/11 12/68/12
f 41/97/13 1/98/14 10/99/15 40/100/16
f 96/129/17 42/130/18 3/131/19 95/132/20
f 94/4/21 9/3/22 13/5/23 93/6/24
f 40/100/25 10/99/26 14/101/27 39/102/28
f 12/68/29 99/67/30 100/71/31 16/72/32
f 9/36/33 43/35/34 44/39/35 13/40/36
f 93/6/37 13/5/38 17/9/39 92/10/40
f 39/102/41 14/101/42 18/105/43 38/106/44
f 16/72/45 100/71/46 101/75/47 20/76/48
f 13/40/49 44/39/50 45/44/51 17/45/52
f 92/10/53 17/9/54 21/13/55 91/14/56
f 38/106/57 18/105/58 22/110/59 37/111/60
f 20/76/61 101/75/62 102/80/63 24/81/64
f 17/45/65 45/44/66 46/48/67 21/49/68
f 91/14/69 21/13/70 25/18/71 90/19/72
f 37/111/73 22/110/74 26/114/75 36/115/76
f 24/81/77 102/80/78 103/83/79 28/84/80
f 21/49/81 46/48/82 47/52/83 25/53/84
f 90/19/85 25/18/86 29/21/87 89/22/88
f 36/115/89 26/114/90 30/118/91 35/119/92
f 28/84/93 103/83/94 104/88/95 32/89/96
f 25/53/97 47/52/98 48/56/99 29/57/100
f 89/22/101 29/21/102 4/26/103 88/27/104
f 30/118/105 2/122/106 34/123/107 35/119/108
f 32/89/109 104/88/110 85/91/111 6/92/112
f 29/57/113 48/56/114 33/60/115 4/61/116
f 88/145/117 4/146/118 33/147/119 87/148/120
f 87/148/121 33/147/122 49/149/123 86/150/124
f 35/119/125 34/123/126 50/126/127 51/124/128
f 52/120/129 36/115/130 35/119/131 51/124/132
f 53/116/133 37/111/134 36/115/135 52/120/136
f 54/112/137 38/106/138 37/111/139 53/116/140
f 55/107/141 39/102/142 38/106/143 54/112/144
f 56/104/145 40/100/146 39/102/147 55/107/148
f 57/103/149 41/97/150 40/100/151 56/104/152
f 97/133/153 58/134/154 42/130/155 96/129/156
f 43/35/157 42/34/158 58/37/159 59/38/160
f 44/39/161 43/35/162 59/38/163 60/43/164
f 45/44/165 44/39/166 60/43/167 61/47/168
f 46/48/169 45/44/170 61/47/171 62/51/172
f 47/52/173 46/48/174 62/51/175 63/55/176
f 48/56/177 47/52/178 63/55/179 64/59/180
f 33/60/181 48/56/182 64/59/183 49/63/184
f 86/150/185 49/149/186 6/153/187 85/154/188
f 51/124/189 50/126/190 8/128/191 31/127/192
f 27/125/193 52/120/194 51/124/195 31/127/196
f 23/121/197 53/116/198 52/120/199 27/125/200
f 19/117/201 54/112/202 53/116/203 23/121/204
f 15/113/205 55/107/206 54/112/207 19/117/208
f 11/109/209 56/104/210 55/107/211 15/113/212
f 7/108/213 57/103/214 56/104/215 11/109/216
f 98/137/217 5/138/218 58/134/219 97/133/220
f 59/38/221 58/37/222 5/41/223 12/42/224
f 60/43/225 59/38/226 12/42/227 16/46/228
f 61/47/229 60/43/230 16/46/231 20/50/232
f 62/51/233 61/47/234 20/50/235 24/54/236
f 63/55/237 62/51/238 24/54/239 28/58/240
f 64/59/241 63/55/242 28/58/243 32/62/244
f 49/63/245 64/59/246 32/62/247 6/64/248
f 50/159/249 66/157/250 65/158/251 8/160/252
f 2/155/253 68/151/254 67/152/255 34/156/256
f 30/31/257 69/29/258 68/30/259 2/32/260
f 26/28/261 70/24/262 69/29/263 30/31/264
f 22/25/265 71/23/266 70/24/267 26/28/268
f 18/20/269 72/16/270 71/23/271 22/25/272
f 14/17/273 73/15/274 72/16/275 18/20/276
f 10/12/277 74/8/278 73/15/279 14/17/280
f 1/11/281 75/7/282 74/8/283 10/12/284
f 41/140/285 76/135/286 75/136/287 1/141/288
f 57/143/289 77/139/290 76/135/291 41/140/292
f 7/144/293 78/142/294 77/139/295 57/143/296
f 79/70/297 78/69/298 7/73/299 11/74/300
f 80/77/301 79/70/302 11/74/303 15/78/304
f 81/79/305 80/77/306 15/78/307 19/82/308
f 82/85/309 81/79/310 19/82/311 23/86/312
f 83/87/313 82/85/314 23/86/315 27/90/316
f 84/93/317 83/87/318 27/90/319 31/94/320
f 65/95/321 84/93/322 31/94/323 8/96/324
f 66/157/325 86/150/326 85/154/327 65/158/328
f 68/151/329 88/145/330 87/148/331 67/152/332
f 69/29/333 89/22/334 88/27/335 68/30/336
f 71/23/337 91/14/338 90/19/339 70/24/340
f 73/15/341 93/6/342 92/10/343 72/16/344
f 75/7/345 95/1/346 94/4/347 74/8/348
f 76/135/349 96/129/350 95/132/351 75/136/352
f 77/139/353 97/133/354 96/129/355 76/135/356
f 78/142/357 98/137/358 97/133/359 77/139/360
f 99/67/361 98/66/362 78/69/363 79/70/364
f 101/75/365 100/71/366 80/77/367 81/79/368
f 103/83/369 102/80/370 82/85/371 83/87/372
f 85/91/373 104/88/374 84/93/375 65/95/376
